<?xml version="1.0" encoding="utf-8"?>
<!-- Generator: Adobe Illustrator 24.0.1, SVG Export Plug-In . SVG Version: 6.00 Build 0)  -->
<svg version="1.1" id="Layer_1" xmlns="http://www.w3.org/2000/svg" xmlns:xlink="http://www.w3.org/1999/xlink" x="0px" y="0px"
	 viewBox="0 0 24 24" style="enable-background:new 0 0 24 24;" xml:space="preserve">
<style type="text/css">
	.st0{fill-rule:evenodd;clip-rule:evenodd;fill:#FFFFFF;}
</style>
<path class="st0" d="M14.8,12.2c-0.2-0.7-0.6-1.3-1.1-1.9c-1.7-1.7-4.4-1.7-6,0l-5.3,5.3c-1.7,1.7-1.7,4.4,0,6c1.7,1.7,4.4,1.7,6,0
	l4.1-4.1l0.4,0c0.4,0,0.9,0,1.3-0.1l-5,5c-1,1-2.4,1.6-3.8,1.6s-2.7-0.5-3.8-1.6c-2.1-2.1-2.1-5.5,0-7.5l5.3-5.3C8,8.5,9.3,8,10.7,8
	c1.4,0,2.7,0.5,3.8,1.6c0.5,0.5,0.9,1.1,1.2,1.8C15.6,11.3,14.8,12.2,14.8,12.2z"/>
<path class="st0" d="M9.2,11.8c0.2,0.7,0.6,1.3,1.1,1.9c1.7,1.7,4.4,1.7,6.1,0l5.4-5.4c1.7-1.7,1.7-4.4,0-6.1
	c-1.7-1.7-4.4-1.7-6.1,0l-4.1,4.1l-0.4,0c-0.4,0-0.9,0-1.3,0.1l5-5c1-1,2.4-1.6,3.8-1.6c1.4,0,2.8,0.5,3.8,1.6
	c2.1,2.1,2.1,5.5,0,7.6l-5.4,5.4c-1,1-2.4,1.6-3.8,1.6s-2.8-0.5-3.8-1.6c-0.5-0.5-0.9-1.1-1.2-1.8C8.4,12.6,9.2,11.8,9.2,11.8z"/>
</svg>
